<?xml version="1.0" encoding="utf-8"?>
<!-- Generator: Adobe Illustrator 16.0.0, SVG Export Plug-In . SVG Version: 6.00 Build 0)  -->
<!DOCTYPE svg PUBLIC "-//W3C//DTD SVG 1.1//EN" "http://www.w3.org/Graphics/SVG/1.1/DTD/svg11.dtd">
<svg version="1.1" id="Layer_1" xmlns="http://www.w3.org/2000/svg" xmlns:xlink="http://www.w3.org/1999/xlink" x="0px" y="0px"
	 width="170.08px" height="226.77px" viewBox="0 0 170.08 226.77" enable-background="new 0 0 170.08 226.77" xml:space="preserve">
<path d="M83.475,47.597c0,7.377-0.817,13.914-2.455,19.625c-1.638,5.716-3.951,10.635-6.939,14.764
	c-3.099,4.134-6.763,7.293-10.986,9.479c-4.221,2.19-9.035,3.283-14.432,3.283H33.925V2.637H49.09
	c11.204,0,19.735,3.827,25.598,11.486C80.547,21.777,83.475,32.937,83.475,47.597z M49.35,84.053c8.272,0,14.506-3.036,18.7-9.113
	s6.291-15.065,6.291-26.977c0-11.985-2.041-20.737-6.118-26.245c-4.079-5.508-10.512-8.262-19.303-8.262h-6.375v70.597H49.35z"/>
<path d="M131.391,84.661v10.087H94.938V3.488h8.79v81.173H131.391z"/>
<path d="M100.409,115.888H66.54v-11.298h33.869V115.888z"/>
<path d="M42.177,211.523v10.088H5.724V130.35h8.791v81.174H42.177z"/>
<path d="M72.423,126.465c5.057,0,9.335,1.398,12.841,4.192c3.503,2.794,6.375,6.501,8.615,11.119
	c2.185,4.614,3.795,9.86,4.829,15.734s1.55,11.847,1.55,17.923c0,6.156-0.516,12.193-1.55,18.107
	c-1.034,5.913-2.645,11.18-4.829,15.798c-2.24,4.618-5.084,8.341-8.531,11.179c-3.447,2.833-7.669,4.252-12.666,4.252
	c-5.057,0-9.337-1.419-12.841-4.252c-3.506-2.838-6.35-6.561-8.531-11.179c-2.241-4.618-3.878-9.845-4.912-15.68
	c-1.035-5.829-1.551-11.782-1.551-17.859c0-6.156,0.516-12.192,1.551-18.107c1.034-5.912,2.671-11.179,4.912-15.797
	c2.24-4.618,5.099-8.341,8.574-11.179C63.359,127.884,67.539,126.465,72.423,126.465z M72.423,213.957
	c3.503,0,6.463-1.099,8.875-3.283c2.413-2.186,4.366-5.104,5.863-8.748c1.489-3.648,2.569-7.698,3.229-12.153
	c0.659-4.455,0.992-9.111,0.992-13.973c0-4.86-0.333-9.577-0.992-14.156c-0.66-4.578-1.74-8.687-3.229-12.336
	c-1.498-3.644-3.419-6.562-5.775-8.747c-2.356-2.19-5.256-3.283-8.703-3.283c-3.447,0-6.392,1.078-8.833,3.219
	c-2.443,2.151-4.411,5.043-5.904,8.693c-1.495,3.644-2.585,7.757-3.276,12.331c-0.687,4.578-1.034,9.217-1.034,13.913
	c0,4.861,0.333,9.563,0.993,14.098c0.659,4.538,1.735,8.628,3.233,12.272c1.494,3.644,3.433,6.58,5.817,8.811
	C66.059,212.845,68.976,213.957,72.423,213.957z"/>
<path d="M155.109,221.002c-3.823,1.621-8.146,2.433-12.971,2.433c-5.057,0-9.45-1.359-13.185-4.073
	c-3.734-2.71-6.895-6.379-9.479-10.997c-2.588-4.618-4.526-9.76-5.816-15.432c-1.294-5.671-1.939-11.545-1.939-17.622
	c0-5.909,0.69-11.724,2.069-17.434c1.378-5.711,3.446-10.794,6.202-15.249c2.645-4.455,5.859-8.039,9.653-10.755
	c3.791-2.714,8.128-4.074,13.013-4.074c3.963,0,7.553,0.771,10.771,2.31c3.216,1.542,6.06,3.729,8.531,6.561l-4.31,9.845
	c-2.3-2.833-4.625-4.841-6.981-6.018c-2.356-1.172-5.083-1.76-8.184-1.76c-4.021,0-7.412,1.117-10.169,3.343
	c-2.759,2.229-5,5.083-6.722,8.568c-1.725,3.644-2.973,7.595-3.748,11.848c-0.778,4.252-1.164,8.484-1.164,12.696
	c0,4.376,0.386,8.707,1.16,13.005c0.771,4.291,2.02,8.262,3.738,11.906c1.722,3.644,3.955,6.58,6.704,8.811
	c2.752,2.23,6.133,3.343,10.147,3.343c2.749,0,5.428-0.445,8.037-1.341c2.605-0.89,4.685-2.105,6.234-3.644v-23.818h-13.188v-10.813
	h21.2v41.191C162.132,216.992,158.927,219.381,155.109,221.002z"/>
</svg>
